<svg xmlns="http://www.w3.org/2000/svg" width="160.391" height="196.853" viewBox="0 0 160.391 196.853">
  <g id="cajaIcono" transform="translate(-1121.616 -416.147)">
    <path id="Trazado_3822" data-name="Trazado 3822" d="M104.017,192.533l-48,27.712c-2.523,1.456-2.523,3.819,0,5.275l48,27.712a10.1,10.1,0,0,0,9.135,0l48-27.712c2.523-1.456,2.523-3.819,0-5.275l-48-27.712A10.1,10.1,0,0,0,104.017,192.533Z" transform="translate(1092.873 338.371)" fill="#e9fffb" opacity="0.999"/>
    <path id="Trazado_3823" data-name="Trazado 3823" d="M104.017,204.082l-48,27.712c-2.523,1.456-2.523,3.817,0,5.275l48,27.712a10.1,10.1,0,0,0,9.135,0l48-27.712c2.523-1.458,2.523-3.819,0-5.275l-48-27.712A10.1,10.1,0,0,0,104.017,204.082Z" transform="translate(1094.873 347.127)" fill="#9dc3f2" opacity="0.254" style="mix-blend-mode: multiply;isolation: isolate"/>
    <path id="Trazado_3824" data-name="Trazado 3824" d="M104.017,192.533l-48,27.712c-2.523,1.456-2.523,3.819,0,5.275l48,27.712a10.1,10.1,0,0,0,9.135,0l48-27.712c2.523-1.456,2.523-3.819,0-5.275l-48-27.712A10.1,10.1,0,0,0,104.017,192.533Z" transform="translate(1094.873 338.371)" fill="none" stroke="#eef7ff" stroke-miterlimit="10" stroke-width="1"/>
    <path id="Trazado_4644" data-name="Trazado 4644" d="M163.045,250.455v-65.62l-49.9-30.71a9.446,9.446,0,0,0-4.571-1.09,9.328,9.328,0,0,0-4.554,1.09c-39.5,24.248-49.9,30.924-49.9,30.924l.006,65.406,54.45-29.8" transform="translate(1092.874 278.254)" fill="#6fa3ed" stroke="rgba(0,0,0,0)" stroke-width="1"/>
    <path id="Trazado_3828" data-name="Trazado 3828" d="M95.117,197.373v-18.25c0-1.952,1.371-2.743,3.042-1.776l.527.316,15.3,8.826a6.174,6.174,0,0,1,2.163,2.286l-20.113,11.6A6.1,6.1,0,0,1,95.117,197.373Z" transform="translate(1123.951 286.309)" fill="#a7b6dd"/>
    <path id="Trazado_3829" data-name="Trazado 3829" d="M116.63,190.861l-.018.6c.018,1.934-1.354,2.725-3.042,1.758l-.281-.158L97.782,184.11a6.128,6.128,0,0,1-2.145-2.286l20.113-11.6a6.025,6.025,0,0,1,.879,2.971Z" transform="translate(1124.345 304.865)" fill="#a7b6dd"/>
    <path id="Trazado_3830" data-name="Trazado 3830" d="M113.7,184.786a5.936,5.936,0,0,0-.9-2.989,6.264,6.264,0,0,0-2.145-2.286l-15.314-8.826-.229-.141v17.6a6.906,6.906,0,0,0,3.059,5.292l15.507,8.949Z" transform="translate(1123.951 295.537)" fill="#f0f3ff"/>
    <path id="Trazado_3831" data-name="Trazado 3831" d="M84.145,197.373v-18.25c0-1.952-1.371-2.743-3.042-1.776l-.527.316-15.3,8.826a6.174,6.174,0,0,0-2.163,2.286l20.113,11.6A6.1,6.1,0,0,0,84.145,197.373Z" transform="translate(1099.689 286.309)" fill="#6386bf"/>
    <path id="Trazado_3832" data-name="Trazado 3832" d="M62.617,190.861l.018.6c-.018,1.934,1.354,2.725,3.042,1.758l.281-.158,15.507-8.949a6.128,6.128,0,0,0,2.145-2.286L63.5,170.22a6.025,6.025,0,0,0-.879,2.971Z" transform="translate(1099.31 304.865)" fill="#a7b6dd"/>
    <path id="Trazado_3833" data-name="Trazado 3833" d="M64.507,184.786a5.936,5.936,0,0,1,.9-2.989,6.264,6.264,0,0,1,2.145-2.286l15.314-8.826.229-.141v17.6a6.906,6.906,0,0,1-3.059,5.292l-15.507,8.949Z" transform="translate(1100.743 295.537)" fill="#f0f3ff"/>
    <path id="Trazado_4644-2" data-name="Trazado 4644" d="M163.045,250.455v-65.62l-49.9-30.71a9.446,9.446,0,0,0-4.571-1.09,9.328,9.328,0,0,0-4.554,1.09c-39.5,24.248-49.9,30.924-49.9,30.924l.006,65.406,54.45-29.8" transform="translate(1092.874 278.254)" fill="#6ba1ef" stroke="rgba(0,0,0,0)" stroke-width="1"/>
    <path id="Trazado_3829-2" data-name="Trazado 3829" d="M116.63,190.861l-.018.6c.018,1.934-1.354,2.725-3.042,1.758l-.281-.158L97.782,184.11a6.128,6.128,0,0,1-2.145-2.286l20.113-11.6a6.025,6.025,0,0,1,.879,2.971Z" transform="translate(1124.345 304.865)" fill="#a7b6dd"/>
    <path id="Trazado_3828-2" data-name="Trazado 3828" d="M116.145,179.941v18.25c0,1.952-1.371,2.743-3.042,1.776l-.527-.316-15.3-8.826a6.174,6.174,0,0,1-2.163-2.286l20.113-11.6A6.1,6.1,0,0,1,116.145,179.941Z" transform="translate(1119.701 293.373)" fill="#3267b4"/>
    <path id="Trazado_3829-3" data-name="Trazado 3829" d="M95.638,172.989l.018-.6c-.018-1.934,1.354-2.725,3.042-1.758l.281.158,15.507,8.949a6.128,6.128,0,0,1,2.145,2.286l-20.113,11.6a6.025,6.025,0,0,1-.879-2.971Z" transform="translate(1118.301 288.281)" fill="#3267b4"/>
    <path id="Trazado_3830-2" data-name="Trazado 3830" d="M95.118,188.144a5.936,5.936,0,0,0,.9,2.989,6.264,6.264,0,0,0,2.145,2.286l15.313,8.826.229.141v-17.6a6.906,6.906,0,0,0-3.059-5.292l-15.507-8.949Z" transform="translate(1122.144 288.527)" fill="#95b9ed"/>
    <path id="Trazado_4646" data-name="Trazado 4646" d="M108.577,250.455l-.475-65.288,28.5-17.913,1.7-1.061c9.663-6.034,18.516-11.5,19.754-12.072a9.828,9.828,0,0,1,4.991-1.087v67.619" transform="translate(1038.874 278.253)" fill="#1f6ad5" stroke="rgba(0,0,0,0)" stroke-width="1" opacity="0.977"/>
    <path id="Trazado_3828-3" data-name="Trazado 3828" d="M95.117,179.941v18.25c0,1.952,1.371,2.743,3.042,1.776l.527-.316,15.3-8.826a6.174,6.174,0,0,0,2.163-2.286l-20.113-11.6A6.1,6.1,0,0,0,95.117,179.941Z" transform="translate(1071.821 293.373)" fill="#3267b4"/>
    <path id="Trazado_3829-4" data-name="Trazado 3829" d="M116.629,172.989l-.018-.6c.018-1.934-1.354-2.725-3.042-1.758l-.281.158L97.782,179.74a6.128,6.128,0,0,0-2.145,2.286l20.113,11.6a6.025,6.025,0,0,0,.879-2.971Z" transform="translate(1072.215 288.283)" fill="#3267b4"/>
    <path id="Trazado_3830-3" data-name="Trazado 3830" d="M113.7,188.144a5.936,5.936,0,0,1-.9,2.989,6.264,6.264,0,0,1-2.145,2.286l-15.313,8.826-.229.141v-17.6a6.906,6.906,0,0,1,3.059-5.292l15.507-8.949Z" transform="translate(1071.821 288.529)" fill="#6595db"/>
    <path id="Trazado_4644-3" data-name="Trazado 4644" d="M54.121,153.035v65.62l49.9,30.71a9.446,9.446,0,0,0,4.571,1.09,9.328,9.328,0,0,0,4.554-1.09c39.5-24.248,49.9-30.924,49.9-30.924l-.006-65.406-54.45,29.8" transform="translate(1092.874 311.254)" fill="#5b99f0" stroke="rgba(0,0,0,0)" stroke-width="1"/>
    <path id="Trazado_3828-4" data-name="Trazado 3828" d="M116.145,179.941v18.25c0,1.952-1.371,2.743-3.042,1.776l-.527-.316-15.3-8.826a6.174,6.174,0,0,1-2.163-2.286l20.113-11.6A6.1,6.1,0,0,1,116.145,179.941Z" transform="translate(1067.701 329.375)" fill="#3267b4"/>
    <path id="Trazado_3829-5" data-name="Trazado 3829" d="M95.638,172.989l.018-.6c-.018-1.934,1.354-2.725,3.042-1.758l.281.158,15.507,8.949a6.128,6.128,0,0,1,2.145,2.286l-20.113,11.6a6.025,6.025,0,0,1-.879-2.971Z" transform="translate(1066.301 324.283)" fill="#3267b4"/>
    <path id="Trazado_3830-4" data-name="Trazado 3830" d="M95.118,188.144a5.936,5.936,0,0,0,.9,2.989,6.264,6.264,0,0,0,2.145,2.286l15.314,8.826.229.141v-17.6a6.906,6.906,0,0,0-3.059-5.292l-15.507-8.949Z" transform="translate(1070.144 324.529)" fill="#95b9ed"/>
    <path id="Trazado_4647" data-name="Trazado 4647" d="M162.57,153.011l.475,65.288-28.5,17.912-1.7,1.061c-9.663,6.034-18.516,11.5-19.754,12.072a9.828,9.828,0,0,1-4.991,1.087V182.812" transform="translate(1092.874 311.253)" fill="#2f6cc3" stroke="rgba(0,0,0,0)" stroke-width="1" opacity="0.5"/>
    <path id="Trazado_3831-2" data-name="Trazado 3831" d="M63.117,179.941v18.25c0,1.952,1.371,2.743,3.042,1.776l.527-.316,15.3-8.826a6.174,6.174,0,0,0,2.163-2.286l-20.113-11.6A6.1,6.1,0,0,0,63.117,179.941Z" transform="translate(1155.962 328.373)" fill="#3267b4"/>
    <path id="Trazado_3832-2" data-name="Trazado 3832" d="M83.609,172.989l-.018-.6c.018-1.934-1.354-2.725-3.042-1.758l-.281.158L64.762,179.74a6.128,6.128,0,0,0-2.145,2.286l20.113,11.6a6.025,6.025,0,0,0,.879-2.971Z" transform="translate(1157.377 323.283)" fill="#3267b4"/>
    <path id="Trazado_3833-2" data-name="Trazado 3833" d="M83.09,188.144a5.936,5.936,0,0,1-.9,2.989,6.264,6.264,0,0,1-2.145,2.286l-15.314,8.826-.229.141v-17.6a6.906,6.906,0,0,1,3.059-5.292l15.507-8.949Z" transform="translate(1154.573 323.529)" fill="#6595db"/>
    <path id="Trazado_4650" data-name="Trazado 4650" d="M24.387,44.417,1.771,31.93c-2.362-1.364-2.362-3.576,0-4.942L47.789.832a9.448,9.448,0,0,1,8.552,0L79.209,13.246Z" transform="matrix(-1, -0.017, 0.017, -1, 1279.861, 507.939)" fill="#1f6ad5"/>
    <path id="Trazado_4653" data-name="Trazado 4653" d="M24.387,0,1.771,12.487c-2.362,1.364-2.362,3.576,0,4.942L47.789,43.585a9.448,9.448,0,0,0,8.552,0L79.209,31.172Z" transform="matrix(1, -0.017, 0.017, 1, 1121.661, 463.529)" fill="#6ba1ef"/>
    <path id="Trazado_4654" data-name="Trazado 4654" d="M24-.726,1.771,12.487c-2.362,1.364-2.362,3.576,0,4.942L47.789,43.585a9.448,9.448,0,0,0,8.552,0L80,30.078Z" transform="translate(1280.451 463.811) rotate(-178)" fill="#5b99f0"/>
    <path id="Trazado_4655" data-name="Trazado 4655" d="M24.949,47.178,1.771,32.121c-2.362-1.364-2.362-3.576,0-4.942L47.789,1.023a9.448,9.448,0,0,1,8.552,0L80.068,13.538Z" transform="matrix(1, 0.017, -0.017, 1, 1122.44, 416.147)" fill="#4482d9"/>
  </g>
</svg>
