<svg xmlns="http://www.w3.org/2000/svg" xmlns:xlink="http://www.w3.org/1999/xlink" width="392" height="365.489" viewBox="0 0 392 365.489">
    <defs>
        <style>
            .cls-1,.cls-2{fill:#e5e8eb}.cls-2,.cls-22{mix-blend-mode:multiply}.cls-2,.cls-21,.cls-22{isolation:isolate}.cls-3{fill:#dceeff}.cls-4{fill:#a5cbfa}.cls-5{fill:#c8e2ff}.cls-10,.cls-6{fill:none;stroke-miterlimit:10}.cls-22,.cls-7{fill:#344593}.cls-8{fill:#1e3779}.cls-9{fill:#031f60}.cls-10{stroke:#fff;stroke-linecap:round}.cls-11{fill:#eda6bb}.cls-12{fill:#ce6a88}.cls-13{fill:#efc7d3}.cls-14{fill:url(#linear-gradient)}.cls-15{fill:url(#linear-gradient-5)}.cls-16{fill:url(#linear-gradient-6)}.cls-17{fill:url(#linear-gradient-7)}.cls-18{fill:url(#linear-gradient-8)}.cls-19{fill:#b5deff}.cls-20{fill:#3a52aa}.cls-21,.cls-39{fill:#fff}.cls-21{opacity:.4;mix-blend-mode:soft-light}.cls-22{opacity:.15}.cls-23,.cls-24{opacity:.3;fill:url(#linear-gradient-9)}.cls-24{opacity:.5}.cls-25{fill:#ffa8a7}.cls-26{fill:#e4f2f2}.cls-27{fill:#2d2979}.cls-28{fill:#c4d9ff}.cls-29{fill:#9ebce8}.cls-30{fill:#f28f8f}.cls-31{fill:#3a2c6d}.cls-32{fill:#f5fbfb}.cls-33{fill:#291d51}.cls-34{fill:#7fa8e6}.cls-35{fill:#597bc6}.cls-36{fill:#543354}.cls-37{fill:#f09088}.cls-38,.cls-39{stroke:none}
        </style>
        <linearGradient id="linear-gradient" x2="1" y1=".5" y2=".5" gradientUnits="objectBoundingBox">
            <stop offset="0" stop-color="#c8e2ff"/>
            <stop offset=".178" stop-color="#c2ddfc"/>
            <stop offset=".41" stop-color="#b2d0f4"/>
            <stop offset=".671" stop-color="#97bbe6"/>
            <stop offset=".952" stop-color="#729ed4"/>
            <stop offset="1" stop-color="#6b99d1"/>
        </linearGradient>
        <linearGradient id="linear-gradient-5" x1="276.044" x2="277.044" y1=".5" y2=".5" xlink:href="#linear-gradient"/>
        <linearGradient id="linear-gradient-6" x1="277.697" x2="278.696" y1=".5" y2=".5" xlink:href="#linear-gradient"/>
        <linearGradient id="linear-gradient-7" x1="279.395" x2="280.395" y1=".5" y2=".5" xlink:href="#linear-gradient"/>
        <linearGradient id="linear-gradient-8" x1="281.024" x2="282.024" y1=".5" y2=".5" xlink:href="#linear-gradient"/>
        <linearGradient id="linear-gradient-9" x2="0" y1="1" y2=".585" gradientUnits="objectBoundingBox">
            <stop offset="0" stop-color="#ce6a88"/>
            <stop offset=".117" stop-color="#db819c"/>
            <stop offset=".423" stop-color="#e397ae"/>
            <stop offset="1" stop-color="#ffeff4" stop-opacity="0"/>
        </linearGradient>
    </defs>
    <g id="Grupo_3000" data-name="Grupo 3000" transform="translate(-654 -210.121)">
        <g id="Grupo_2987" data-name="Grupo 2987" transform="translate(959.171 378.469)">
            <path id="Trazado_4362" d="M14.8 31.837h10.25c0-7.2 11.4-8.417 11.4-19.279C36.453 4.548 29.393 0 19.211 0 10.047 0 3.666 3.53 0 9.1l8.214 4.82a11.5 11.5 0 0 1 9.843-5.023c4.412 0 7.331 2.1 7.331 5.431 0 5.901-10.588 8.005-10.588 17.509zm5.159 17.039a6.24 6.24 0 0 0 6.515-6.176c0-3.462-2.715-6.042-6.517-6.042s-6.517 2.58-6.517 6.042a6.24 6.24 0 0 0 6.517 6.175z" class="cls-1" data-name="Trazado 4362" transform="rotate(14.98 -126.742 215.935)"/>
            <path id="Trazado_4363" d="M16.5 12.287c3.869 0 6.517-2.647 6.517-6.109A6.2 6.2 0 0 0 16.5 0a6.181 6.181 0 0 0-6.449 6.177 6.088 6.088 0 0 0 6.449 6.11zm.747 35.978c9.232 0 15.545-3.53 19.211-9.1l-8.214-4.82a11.257 11.257 0 0 1-9.844 5.027c-4.412 0-7.263-2.1-7.263-5.023 0-5.906 10.522-8.01 10.522-17.31H11.4C11.4 24.03.068 25.32 0 35.91c0 7.874 7.06 12.355 17.242 12.355z" class="cls-1" data-name="Trazado 4363" transform="rotate(14.98 6.224 47.415)"/>
        </g>
        <g id="Grupo_2985" data-name="Grupo 2985" transform="translate(654 210.121)">
            <g id="Grupo_2984" data-name="Grupo 2984" transform="translate(59.368)">
                <g id="Grupo_2983" data-name="Grupo 2983">
                    <g id="Grupo_2083" data-name="Grupo 2083" transform="translate(3.875)">
                        <g id="Grupo_2075" data-name="Grupo 2075" transform="translate(0 216.473)">
                            <path id="Trazado_3838" d="M493.732 324.44L393.8 382.09a10.323 10.323 0 0 1-9.316 0l-99.912-57.643a3.248 3.248 0 0 1-1.934-2.688 2.751 2.751 0 0 1 1.021-2.024 4.661 4.661 0 0 1 .913-.663l99.935-57.633a10.283 10.283 0 0 1 9.317 0l99.909 57.625c2.561 1.487 2.561 3.906-.001 5.376z" class="cls-2" data-name="Trazado 3838" transform="translate(-270.01 -235.28)"/>
                            <path id="Trazado_3840" d="M493.732 317.314L393.8 374.947a9.418 9.418 0 0 1-4.658 1.111 9.537 9.537 0 0 1-4.641-1.093l-99.929-57.643a3.291 3.291 0 0 1-1.934-2.687 3.246 3.246 0 0 1 1.934-2.688l13.546-7.812 86.389-49.84a10.29 10.29 0 0 1 9.317 0l99.909 57.644c2.561 1.469 2.561 3.889-.001 5.375z" class="cls-3" data-name="Trazado 3840" transform="translate(-270.01 -236.374)"/>
                            <path id="Trazado_3841" d="M389.14 350.976V370.4a9.538 9.538 0 0 1-4.64-1.1l-99.929-57.643a3.291 3.291 0 0 1-1.934-2.687v-16.821a2.751 2.751 0 0 1 1.021-2.024l14.459 8.349z" class="cls-4" data-name="Trazado 3841" transform="translate(-270.01 -230.714)"/>
                            <path id="Trazado_3842" d="M374.99 350.977V370.4a9.537 9.537 0 0 0 4.641-1.093l99.951-57.651a3.287 3.287 0 0 0 1.935-2.687v-16.827a2.754 2.754 0 0 0-1.021-2.024l-14.46 8.349z" class="cls-5" data-name="Trazado 3842" transform="translate(-255.86 -230.715)"/>
                            <path id="Trazado_3843" d="M493.732 302.723l-99.932 57.65a10.323 10.323 0 0 1-9.316 0l-99.912-57.643a3.246 3.246 0 0 1-1.934-2.688 2.751 2.751 0 0 1 1.021-2.024 4.661 4.661 0 0 1 .913-.663l99.935-57.633a10.29 10.29 0 0 1 9.317 0l99.909 57.625c2.561 1.487 2.561 3.906-.001 5.376z" class="cls-3" data-name="Trazado 3843" transform="translate(-270.01 -238.607)"/>
                            <path id="Trazado_3844" d="M329.227 382.59l-8.131-4.695c-5.516-3.185-13.134-3.95-17.015-1.709s-2.556 6.639 2.96 9.822l8.133 4.695c5.516 3.185 13.133 3.951 17.015 1.71s2.554-6.639-2.962-9.823z" class="cls-2" data-name="Trazado 3844" transform="translate(-301.855 -251.666)"/>
                            <path id="Trazado_3845" d="M425.527 376.138l8.131-4.695c5.516-3.184 13.133-3.95 17.015-1.708s2.554 6.637-2.961 9.822l-8.133 4.695c-5.516 3.185-13.132 3.95-17.014 1.71s-2.554-6.639 2.962-9.824z" class="cls-2" data-name="Trazado 3845" transform="translate(-198.848 -238.229)"/>
                            <g id="Trazado_3846" class="cls-6" data-name="Trazado 3846">
                                <path d="M493.732 302.723l-99.932 57.65a10.323 10.323 0 0 1-9.316 0l-99.912-57.643a3.246 3.246 0 0 1-1.934-2.688 2.751 2.751 0 0 1 1.021-2.024 4.661 4.661 0 0 1 .913-.663l99.935-57.633a10.29 10.29 0 0 1 9.317 0l99.909 57.625c2.561 1.487 2.561 3.906-.001 5.376z" class="cls-38" transform="translate(-270.01 -238.607)"/>
                                <path d="M389.14 360.484c1.604 0 3.079-.346 4.154-.974l.002-.002.003-.001 99.936-57.652c.9-.516 1.417-1.176 1.419-1.81.001-.639-.517-1.307-1.422-1.831l-99.909-57.625c-1.082-.624-2.601-.982-4.166-.982-1.564 0-3.076.357-4.152.981l-99.934 57.634-.009.005-.008.004c-.253.14-.494.315-.717.521l-.006.006-.007.006c-.443.396-.687.85-.687 1.278 0 .649.508 1.295 1.429 1.82l.002.001.003.001 99.911 57.643.003.001.002.002c1.075.628 2.55.974 4.153.974m0 1c-1.683 0-3.368-.358-4.657-1.11L284.57 302.73c-1.29-.735-1.934-1.702-1.934-2.689 0-.698.34-1.414 1.02-2.023a4.66 4.66 0 0 1 .914-.664l99.935-57.633c1.28-.743 2.964-1.115 4.65-1.115 1.687 0 3.376.372 4.667 1.115l99.909 57.625c2.562 1.487 2.562 3.906 0 5.376l-99.934 57.65c-1.289.753-2.973 1.11-4.658 1.11z" class="cls-39" transform="translate(-270.01 -238.607)"/>
                            </g>
                            <path id="Trazado_3847" d="M383.275 249.822l-81.2 46.832c-1.714.989-1.714 2.595 0 3.583l81.181 46.825a6.862 6.862 0 0 0 6.208 0l81.2-46.832c1.714-.989 1.714-2.594 0-3.584l-81.181-46.824a6.86 6.86 0 0 0-6.208 0z" class="cls-7" data-name="Trazado 3847" transform="translate(-267.229 -237.003)"/>
                            <path id="Trazado_3848" d="M459.29 296.646l-81.181-46.824a6.343 6.343 0 0 0-3.1-.743v3.154l83.748 48.306.536-.309c1.707-.989 1.707-2.594-.003-3.584z" class="cls-8" data-name="Trazado 3848" transform="translate(-255.857 -237.003)"/>
                            <path id="Trazado_3849" d="M386.379 249.08a6.338 6.338 0 0 0-3.1.742l-81.2 46.832c-1.714.989-1.714 2.595 0 3.583l.536.31 83.772-48.314z" class="cls-9" data-name="Trazado 3849" transform="translate(-267.229 -237.003)"/>
                        </g>
                        <path id="Trazado_3850" d="M378.984 277.057l24.039-13.834a.411.411 0 0 0 0-.78l-24.039-13.879a1.493 1.493 0 0 0-1.352 0l-24 13.878a.412.412 0 0 0 0 .781l24 13.834a1.5 1.5 0 0 0 1.352 0z" class="cls-10" data-name="Trazado 3850" transform="translate(-259.175 -20.634)"/>
                        <g id="Grupo_2080" data-name="Grupo 2080" transform="translate(59.835 213.111)">
                            <g id="Grupo_2077" data-name="Grupo 2077">
                                <g id="Grupo_2076" data-name="Grupo 2076" transform="translate(0 34.248)">
                                    <path id="Trazado_3851" d="M375.011 265.39v55.6a8.064 8.064 0 0 0 3.943-.943l51.433-29.7a8.716 8.716 0 0 0 3.943-6.828V265.39z" class="cls-11" data-name="Trazado 3851" transform="translate(-315.692 -265.39)"/>
                                    <path id="Trazado_3852" d="M323.573 265.39v18.13a8.711 8.711 0 0 0 3.942 6.827l51.436 29.7a8.057 8.057 0 0 0 3.942.943v-55.6z" class="cls-12" data-name="Trazado 3852" transform="translate(-323.573 -265.39)"/>
                                </g>
                                <path id="Trazado_3853" d="M378.931 303.256L325.2 272.217c-2.176-1.257-2.176-3.295 0-4.552l53.744-31.03a8.712 8.712 0 0 1 7.883 0l53.745 31.03c2.177 1.257 2.177 3.295 0 4.552l-53.764 31.04a8.706 8.706 0 0 1-7.877-.001z" class="cls-13" data-name="Trazado 3853" transform="translate(-323.573 -235.692)"/>
                                <path id="Trazado_3854" d="M334.691 267.542l44.037-25.434a5.808 5.808 0 0 1 5.255 0l44.056 25.437c1.451.838 1.451 2.2 0 3.033l-44.075 25.438a5.808 5.808 0 0 1-5.255 0l-44.019-25.434c-1.451-.843-1.45-2.202.001-3.04z" class="cls-10" data-name="Trazado 3854" transform="translate(-322.036 -234.806)"/>
                                <path id="Trazado_3855" d="M381.12 247.58l34.657 19.828a.8.8 0 0 1 0 1.518l-34.657 19.851a2.907 2.907 0 0 1-2.628 0l-34.363-19.845a.8.8 0 0 1 0-1.519l34.363-19.833a2.9 2.9 0 0 1 2.628 0z" class="cls-10" data-name="Trazado 3855" transform="translate(-320.507 -233.919)"/>
                            </g>
                            <g id="Grupo_2078" data-name="Grupo 2078" transform="translate(.015 50.321)">
                                <path id="Trazado_3856" d="M337.206 282.813a4.124 4.124 0 0 0-1.865-3.231 1.3 1.3 0 0 0-1.333-.12l-7.61 4.4a6.234 6.234 0 0 0-2.81 4.868v10.454a1.311 1.311 0 0 0 .772 1.077 4.127 4.127 0 0 0 3.728 0 1.307 1.307 0 0 0 .771-1.077V288.9a.65.65 0 0 1 .324-.562l7.469-4.314.015-.008.018-.012a1.324 1.324 0 0 0 .521-1.191z" class="cls-14" data-name="Trazado 3856" transform="translate(-323.586 -279.328)"/>
                                <path id="Trazado_3857" d="M347.1 288.551a4.124 4.124 0 0 0-1.865-3.23 1.293 1.293 0 0 0-1.333-.119l-7.61 4.394a6.24 6.24 0 0 0-2.81 4.869v10.454a1.313 1.313 0 0 0 .773 1.076 4.122 4.122 0 0 0 3.727 0 1.305 1.305 0 0 0 .771-1.077v-10.28a.649.649 0 0 1 .325-.562l7.468-4.313.015-.008.02-.012a1.319 1.319 0 0 0 .519-1.192z" class="cls-14" data-name="Trazado 3857" transform="translate(-322.07 -278.449)"/>
                                <path id="Trazado_3858" d="M357 294.29a4.126 4.126 0 0 0-1.865-3.231 1.3 1.3 0 0 0-1.333-.118l-7.61 4.395a6.24 6.24 0 0 0-2.81 4.869v10.454a1.311 1.311 0 0 0 .771 1.076 4.114 4.114 0 0 0 3.727 0 1.31 1.31 0 0 0 .773-1.076v-10.284a.649.649 0 0 1 .324-.562l7.469-4.313.014-.008.02-.012a1.32 1.32 0 0 0 .52-1.19z" class="cls-14" data-name="Trazado 3858" transform="translate(-320.554 -277.569)"/>
                                <path id="Trazado_3859" d="M366.892 300.029a4.12 4.12 0 0 0-1.865-3.23 1.3 1.3 0 0 0-1.333-.12l-7.61 4.4a6.234 6.234 0 0 0-2.81 4.867V316.4a1.305 1.305 0 0 0 .771 1.075 4.12 4.12 0 0 0 3.728 0 1.306 1.306 0 0 0 .771-1.077v-10.282a.649.649 0 0 1 .324-.563l7.471-4.314.014-.008.018-.01a1.323 1.323 0 0 0 .521-1.192z" class="cls-14" data-name="Trazado 3859" transform="translate(-319.037 -276.69)"/>
                            </g>
                            <g id="Grupo_2079" data-name="Grupo 2079" transform="translate(70.769 50.321)">
                                <path id="Trazado_3860" d="M414.626 282.813a4.124 4.124 0 0 1 1.865-3.231 1.3 1.3 0 0 1 1.333-.12l7.61 4.4a6.233 6.233 0 0 1 2.809 4.868v10.454a1.31 1.31 0 0 1-.77 1.077 4.127 4.127 0 0 1-3.728 0 1.307 1.307 0 0 1-.771-1.077V288.9a.646.646 0 0 0-.325-.562l-7.47-4.314-.014-.008-.02-.012a1.324 1.324 0 0 1-.519-1.191z" class="cls-15" data-name="Trazado 3860" transform="translate(-380.39 -279.328)"/>
                                <path id="Trazado_3861" d="M404.73 288.551a4.122 4.122 0 0 1 1.866-3.23 1.293 1.293 0 0 1 1.333-.119l7.609 4.394a6.24 6.24 0 0 1 2.811 4.869v10.454a1.311 1.311 0 0 1-.772 1.076 4.122 4.122 0 0 1-3.727 0 1.3 1.3 0 0 1-.771-1.077v-10.28a.647.647 0 0 0-.326-.562l-7.468-4.313-.015-.008-.018-.012a1.319 1.319 0 0 1-.522-1.192z" class="cls-16" data-name="Trazado 3861" transform="translate(-381.907 -278.449)"/>
                                <path id="Trazado_3862" d="M394.835 294.29a4.126 4.126 0 0 1 1.865-3.231 1.3 1.3 0 0 1 1.333-.118l7.61 4.395a6.239 6.239 0 0 1 2.809 4.869v10.454a1.31 1.31 0 0 1-.77 1.076 4.117 4.117 0 0 1-3.728 0 1.309 1.309 0 0 1-.771-1.076v-10.284a.649.649 0 0 0-.324-.562l-7.471-4.313-.013-.008-.02-.012a1.323 1.323 0 0 1-.52-1.19z" class="cls-17" data-name="Trazado 3862" transform="translate(-383.423 -277.569)"/>
                                <path id="Trazado_3863" d="M384.939 300.029a4.121 4.121 0 0 1 1.866-3.23 1.3 1.3 0 0 1 1.333-.12l7.609 4.4a6.232 6.232 0 0 1 2.812 4.867V316.4a1.307 1.307 0 0 1-.773 1.075 4.118 4.118 0 0 1-3.727 0 1.306 1.306 0 0 1-.772-1.077v-10.282a.65.65 0 0 0-.325-.563l-7.469-4.314-.014-.008-.018-.01a1.321 1.321 0 0 1-.522-1.192z" class="cls-18" data-name="Trazado 3863" transform="translate(-384.939 -276.69)"/>
                            </g>
                        </g>
                        <g id="Grupo_2082" data-name="Grupo 2082" transform="translate(68.437 75.218)">
                            <path id="Trazado_3864" d="M429.071 148.075a50.823 50.823 0 1 1-35.771-30.646 50.828 50.828 0 0 1 35.771 30.646z" class="cls-19" data-name="Trazado 3864" transform="translate(-331.032 -116.12)"/>
                            <g id="Grupo_2081" data-name="Grupo 2081" transform="translate(1.28 7.42)">
                                <path id="Trazado_3865" d="M370.365 122.6c-2.325.04-5.307.864-3.148 2.184s3.54 1.445 3.558 3.158-1.1 3.515-.554 4.731 1.46 2.633 2.342 2.222 3.306-3.111 4.688-2.988 6.086.334 6.768-1.2 1.377-1.432 2.5-3.143 1.067-3.991-.306-4-1.557.577-3.856.409-3.363-1.687-5.6-1.286-4.685-.122-6.392-.087z" class="cls-20" data-name="Trazado 3865" transform="translate(-326.882 -122.548)"/>
                                <path id="Trazado_3866" d="M366.981 123.21c-2.637 1.409-8.189 3.536-10.761 2.82-1.277-.362-2.8-.87-4.419-1.171a50.947 50.947 0 0 0-19.659 29.692 16.842 16.842 0 0 0 2.3 3.557c2.012 2.363 4.094 2.663 6.641 3.154s1.753 1.925 3.006 3.427 1.788 2.38 3.221 3.183-.509 2.324-1.068 3.972-.723 2.566.452 5.907 4.579 6.056 5.591 7.351-.7 2.8-.265 5.508.3 9.9 2.9 13.952 4.156 3.572 3.946.843-1.092-5.308.487-7.356 4.784-1.5 5.869-5.252 1.785-3.566 3.518-4.838.958-2.364 2.568-5.259 2.089-5.621-.294-6.81-3.965-1.069-6.012-3.883a26.221 26.221 0 0 0-8.189-7.145c-2.956-1.605-7.649.352-9.522-.191s-3.058-4.108-2.938-5.489-1.271-1.734-2.618-1.4-2.1-.526-2.469-2.328 2.432-4.077 4.71-4.251 3.5.878 3.949 3.814a5.707 5.707 0 0 0 4.493 4.918c2.1.525.785-1.659-.7-3.151s-1.59-2.848-.469-6.137 3.883-3.042 5.943-6.067 2.454-.75 4.534-.45 1.769-.821 2.537-2.711 3.41-.262 5.583-1.8-2.358-3.935-2.065-6.015 2.364-2.007 1.213-5.121.439-3.237 1.262-4.4-.639-2.283-3.275-.873zm-3.076 7.6c-.684 1.541-1.277 1.243-2.4 2.928a6.339 6.339 0 0 1-4.021 2.763c-1.135.135-3-1.883-3.1-3.131s1.708-1.619 3.746-1.884a11.383 11.383 0 0 0 5.631-2.606c1.46-1.145.829.398.144 1.933z" class="cls-20" data-name="Trazado 3866" transform="translate(-332.142 -122.554)"/>
                                <path id="Trazado_3867" d="M425.275 161.06l.011.143a3.6 3.6 0 0 0-2.015 2c-1.156 2.832-1.367 1.594-4.08 3.516s-1.678 3.442-1.53 5.372-3 4.119-4.551 4.808-2.238 5.089-1.731 7.225-2.055 3.011-3.62 4.963-2.462 5.216-3.489 6.783a4.818 4.818 0 0 1-4.743 2.195c-1.855-.317-3.58-3.389-4.579-6.057a15.516 15.516 0 0 1-.768-8.517c.58-2.9.375-2.539-.315-7.062a7.209 7.209 0 0 0-5.628-6.313c-1.748-.442-4.641.581-6.2-.327s-2.228-2.231-3.239-6.5 1.087-5.229 2.744-7.529a15.932 15.932 0 0 1 7.81-5.517 8.628 8.628 0 0 1 6.693.86c1.783.893 2.621 2.887 3.894 3.023s2.361-.525 3.635-.279 2.124.867 3.363.656.452-1.633.275-2.423-1.3-.586-2.79-.6a2.161 2.161 0 0 1-2.392-1.409c-.536-.988-1.382-.121-2.1-.526s-.577 1.416-.64 2.122-.61-.537-.61-.537-.612.959-.88.521.345-1.51.262-2.6-1.664-.834-2.647-1.678a3.76 3.76 0 0 0-3.7-.513c-1.338.445-1.589.122-2.184 1.305s-3.512 1.985-4.436 1.829-.272-2.038.52-3.7 2.426-1.106 3.444-2.782-.372-1.913-1.312-2.184-1.228-1.168-.253-3.3 2.282-1.546 2.817-.558a3.3 3.3 0 0 0 2.975 1.488c1.257.02.962-.871.932-2.7a3.4 3.4 0 0 1 2.476-3.5c1.662-.7 4.436-1.828 5.505-2.823s2.944-.341 3.939.728 3.2 1.47 5.52 1.863a1.907 1.907 0 0 0 1.639-.544 50.593 50.593 0 0 1 11.978 29.078z" class="cls-20" data-name="Trazado 3867" transform="translate(-325.034 -121.497)"/>
                                <path id="Trazado_3868" d="M411.274 178.557c-1.236-.211-1.128.2-1.854 1.171s-1.784 2.08-1.593 3.094.287 2.265 1.144 1.513.562-1.643 1.776-2.193 2.38-3.27.527-3.585z" class="cls-20" data-name="Trazado 3868" transform="translate(-320.549 -113.982)"/>
                            </g>
                            <path id="Trazado_3869" d="M390.671 121.443c-32.372-9.345-38.416 12.721-21.261 26.628s46.562 18.488 50.524 9.319-5.2-29.001-29.263-35.947z" class="cls-21" data-name="Trazado 3869" transform="translate(-326.586 -115.647)"/>
                            <path id="Trazado_3870" d="M368.091 192.078c-25.154-20.643-24.373-60.717-2.319-73.668-.932.311-1.861.642-2.785 1.013a50.827 50.827 0 1 0 65.768 66.815c-7.107 9.862-35.522 26.471-60.664 5.84z" class="cls-22" data-name="Trazado 3870" transform="translate(-331.032 -115.769)"/>
                        </g>
                        <path id="Trazado_3871" d="M380.62 92.46a9.718 9.718 0 0 1-5.614 1.321h-.09.082v280.467a6.9 6.9 0 0 0 3.743-1.119l79.585-45.321c1.481-.806 2.195-1.517 2.195-2.5V46.973z" class="cls-23" data-name="Trazado 3871" transform="translate(-255.871 -46.967)"/>
                        <path id="Trazado_3872" d="M386.267 93.777a12.644 12.644 0 0 1-1.417-.055c-.029 0-.057-.01-.086-.014a11.423 11.423 0 0 1-1.342-.221c-.288-.067-.564-.166-.842-.256-.173-.056-.352-.093-.52-.158a10.255 10.255 0 0 1-1.294-.594l-79.933-45.511V325.31a2.606 2.606 0 0 0 1.55 2.132l80.237 45.695a6.316 6.316 0 0 0 3.627 1.1c.034 0 .068.011.1.011V93.781c-.026 0-.052-.004-.08-.004z" class="cls-24" data-name="Trazado 3872" transform="translate(-267.222 -46.968)"/>
                    </g>
                    <g id="Grupo_2097" data-name="Grupo 2097" transform="translate(209.855 240.643)">
                        <path id="Trazado_3917" d="M450.377 303.468c.221 1.936 2.531 10.291 2.035 13.152s-8.386 7.649-8.386 7.649l-1.094-4.9 4.371-4.282-1.182-8.115z" class="cls-25" data-name="Trazado 3917" transform="translate(-401.366 -274.902)"/>
                        <path id="Trazado_3918" d="M444.094 295.369a3.451 3.451 0 0 1 4.393 1.327c1.162 1.924 2.368 8.521 2.477 9.648 0 0-1.628 2.251-4.073 1.875z" class="cls-26" data-name="Trazado 3918" transform="translate(-401.188 -276.189)"/>
                        <path id="Trazado_3919" d="M446.124 373.059a16.5 16.5 0 0 0 .351 1.934c.2.838.248 1.932-.7 2.234a2.3 2.3 0 0 1-2.625-.612c-.755-1.018-1.149-2.287-2.242-3.275-1.048-.949-2.347-2.023-2.724-3.535-.341-1.365-.124-2.219.81-2.356 1.179-.172 3.043.816 4 1.52a36.4 36.4 0 0 1 3.13 4.09z" class="cls-27" data-name="Trazado 3919" transform="translate(-402.116 -265.102)"/>
                        <path id="Trazado_3920" d="M437.723 375.828s.07 1.087.135 1.95a8.354 8.354 0 0 1 .1 2.88c-.278.639-1.7 1.111-3.372 1.1a8.148 8.148 0 0 0-3.928 1.475 6.163 6.163 0 0 1-4.94.843c-1.439-.451-3.031-1.116-3.272-1.778s.509-.992 4.015-2.6 6.094-2.715 7.454-4.568z" class="cls-27" data-name="Trazado 3920" transform="translate(-404.512 -263.922)"/>
                        <path id="Trazado_3921" d="M448.582 361.17a40.53 40.53 0 0 0-1.542-7.315s.46-6.313.69-12.3c.262-6.794 2.618-12.772.759-18.191l-20.956 4.66s1.269 27.079 1.548 30.356a61.66 61.66 0 0 0 .94 7.6c.957 5.258 2.512 17.762 2.512 17.762a4.642 4.642 0 0 0 4.405.01s.56-15.249.417-19.036c-.175-4.626-.316-4.273-.316-4.273l.693-11.521.453-5.729s.58 4.206.958 7.963c.329 3.274 1.12 6.238 2 12.335.766 5.29 2.764 16.185 2.764 16.185a3.56 3.56 0 0 0 3.823.127s1.451-14.044.852-18.633z" class="cls-28" data-name="Trazado 3921" transform="translate(-403.726 -271.853)"/>
                        <path id="Trazado_3922" d="M436.769 341.745s.58 4.206.958 7.963c.158 1.578.424 3.087.757 4.906 0 0-.3-7-.183-10.306s.445-6.888.445-6.888c4.4-1.87 5.314-4.552 5.314-4.552a18.171 18.171 0 0 1-6.714 3.644z" class="cls-29" data-name="Trazado 3922" transform="translate(-402.311 -270.397)"/>
                        <path id="Trazado_3923" d="M445.078 297.812c-1.6.077-2.784.489-2.983.017a20.664 20.664 0 0 1-.364-2.494c.185-.462.341-.961.341-.961a7.821 7.821 0 0 0-3.289-14.458c-4.054-.422-7.036 2.426-7.832 6.337-.428 1.932-1.007 6.03.146 9.207.644 1.775 1.2 2.556 2.033 2.831a16.545 16.545 0 0 0 2.4-.032s.215 1.2.362 1.965.09 1.176-1.44 2.118 2.315 2.881 4.826 2.689 5.337-1.706 6.111-3.329c.86-1.809.785-3.943-.311-3.89z" class="cls-25" data-name="Trazado 3923" transform="translate(-403.283 -278.517)"/>
                        <path id="Trazado_3924" d="M434.131 300.587a.843.843 0 0 0-.126.1l2.188.751 6.482-1 1.508-3.867-.146-.465c-1.22.129-2.092.355-2.259-.04a15.294 15.294 0 0 1-.33-2.167c-1.164.2-2.542.45-2.874.461-.6.021-2.666-3.017-2.666-3.017a23.134 23.134 0 0 1-.565 3.251 4.729 4.729 0 0 1-2.857 1.788 1.819 1.819 0 0 0 .328.146 16.555 16.555 0 0 0 2.4-.032s.215 1.2.362 1.965.086 1.184-1.445 2.126z" class="cls-30" data-name="Trazado 3924" transform="translate(-402.967 -276.759)"/>
                        <path id="Trazado_3925" d="M445.892 283.815c-.191-.938-.849-2.15-5.9-3.565-4.823-1.353-8.6-1.922-9.521-1.3s-1.153 5.39 3.4 7.653a2.712 2.712 0 0 1 .3 1.3 19.584 19.584 0 0 0 0 2.13 1.431 1.431 0 0 0 1.338 1.22s.007-.662.007-2.023a1.479 1.479 0 0 1 2.672.13 3.455 3.455 0 0 1-.155 3.2c-.535 1-1.425 1.087-1.734.731a6.319 6.319 0 0 0 1.5 4.287 4.739 4.739 0 0 0 4.133-.9 20.655 20.655 0 0 1 1.532-2.649c.936-1.492 1.905-2.461 2.425-4.867a11.387 11.387 0 0 0 .003-5.347z" class="cls-31" data-name="Trazado 3925" transform="translate(-403.358 -278.697)"/>
                        <path id="Trazado_3926" d="M443.234 295.683c.442 1.1-.682 2.451-3.68 3.393s-3.267-.27-3.267-.27a59.223 59.223 0 0 0-5.825 3c-1.8 1.258-2.6 4.9-2.839 11.042-.28 7.11-.306 17.657-.069 19.477 0 0 3.362 3.352 7.665 3s11.54-4.162 13.3-7.1c-.048-6.234-.777-7.248.232-10.84 2.31-8.223 3.528-11.588 2.4-17.05-.926-4.5-2.223-5.064-4-5.019a36.9 36.9 0 0 0-3.917.367z" class="cls-32" data-name="Trazado 3926" transform="translate(-403.747 -276.152)"/>
                        <path id="Trazado_3927" d="M441.46 295.132a8.526 8.526 0 0 1-6.148 2.594c-.648-.107-1 1.147-1.372 1.768 0 0 1.513 1.234 4.867.384s4.54-3.327 4.254-4.248c0-.001-1.071-1.17-1.601-.498z" class="cls-26" data-name="Trazado 3927" transform="translate(-402.744 -276.211)"/>
                        <path id="Trazado_3928" d="M424 319.063c3.53.89 4.36-1.337 4.824-3.181 1.123-4.463 1.729-8.495 2.566-11.027.985-2.989 2.02-3.464 3.471-4.047 1.7-.684 3.171.757 2.6 4.56a76.138 76.138 0 0 1-3.235 12.981c-.439 1.39-1.425 3.861-2.9 5.053-1.821 1.473-4.566 1.41-8.717.377-1.77-.442-3.711-1.5-7.061-3.061-.9-.419-1.6-.7-3.324-1.5a11.761 11.761 0 0 1-4.425-3.455c-.906-1.31-1.025-1.925-.841-2.223.232-.375.642-.292 1.124.259a9.651 9.651 0 0 0 2.541 2.35s-1.115-1.151-1.719-1.9a9.571 9.571 0 0 1-1.337-2.182c-.318-.763.339-1.8.838-1.257s.739 1.1 1.653 2.193a9.441 9.441 0 0 0 1.635 1.561 17.9 17.9 0 0 1-1.507-2.425 4.006 4.006 0 0 1-.55-2.192c.025-.4.588-.873 1.117-.118a14.5 14.5 0 0 0 1.9 2.9c.806.838 1.492 1.319 1.512 1.087s-.489-.692-.777-1.665c-.276-.928.007-2.005.541-2.119s.435-.082.867.829a27.041 27.041 0 0 1 1.6 2.917 6 6 0 0 0 1.451 2.5c.875.922 2.795 1.94 6.153 2.785z" class="cls-25" data-name="Trazado 3928" transform="translate(-406.889 -275.334)"/>
                        <path id="Trazado_3929" d="M433.187 300.266c-2.358-.348-4.024.714-5.065 4.287s-1.77 6.5-1.77 6.5a6.416 6.416 0 0 0 3.95 2.625c2.822.682 3.836-.664 3.836-.664s.783-3.746 1.271-6.294.691-6.02-2.222-6.454z" class="cls-26" data-name="Trazado 3929" transform="translate(-403.907 -275.402)"/>
                    </g>
                    <g id="Grupo_2167" data-name="Grupo 2167" transform="translate(0 230.128)">
                        <g id="Grupo_2166" data-name="Grupo 2166">
                            <g id="Grupo_2165" data-name="Grupo 2165" transform="translate(6.621 102.987)">
                                <g id="Grupo_2163" data-name="Grupo 2163">
                                    <path id="Trazado_3996" d="M310.8 381.622s-.358.626-2.289-.186a5.1 5.1 0 0 1-2.476-1.777s.5-3.879 1.7-2.9 3.065 4.863 3.065 4.863z" class="cls-33" data-name="Trazado 3996" transform="translate(-303.961 -368.048)"/>
                                    <path id="Trazado_3997" d="M306.16 369.184c.033 2.034.084 3.591-.689 4.681a4.218 4.218 0 0 0-.838 1.832 5.8 5.8 0 0 1 3.467 1.903c1.167 1.581 1.1 3.163 2.185 3.424s2.891-.981 2.891-.981a1.89 1.89 0 0 1-1.595-1.484 50.807 50.807 0 0 1-1.641-5.319c-.043-.807 0-3.927 0-3.927z" class="cls-25" data-name="Trazado 3997" transform="translate(-304.175 -369.184)"/>
                                    <path id="Trazado_3998" d="M306.2 373.7a4.421 4.421 0 0 1 3.043 2.338c.511 1.158 1.355 2.786 2.005 3.151s1.8-.167 2.785-.173 1.677.449 1.732 1.165l-4.089 1.937c-.943.447-1.739.46-2.479-1.5s-1.022-3.061-1.609-1.73a18.716 18.716 0 0 0-.833 4.329.95.95 0 0 1-1.19-.5 19.552 19.552 0 0 0-.144-2.614c-.168-1.2-1.262-2.721-1.179-4.17s.87-2.298 1.958-2.233z" class="cls-27" data-name="Trazado 3998" transform="translate(-304.236 -368.492)"/>
                                </g>
                                <g id="Grupo_2164" data-name="Grupo 2164" transform="translate(15 7.391)">
                                    <path id="Trazado_3999" d="M324.03 388.456s-.369.648-2.368-.191a5.274 5.274 0 0 1-2.56-1.838s.52-4.012 1.756-3 3.172 5.029 3.172 5.029z" class="cls-33" data-name="Trazado 3999" transform="translate(-316.958 -374.418)"/>
                                    <path id="Trazado_4000" d="M319.232 375.593c.036 2.1.088 3.715-.712 4.841a4.36 4.36 0 0 0-.867 1.895 6 6 0 0 1 3.584 1.971c1.206 1.634 1.139 3.269 2.259 3.542s2.989-1.016 2.989-1.016a1.958 1.958 0 0 1-1.648-1.535 52.487 52.487 0 0 1-1.7-5.5c-.044-.835-.2-4.2-.2-4.2z" class="cls-25" data-name="Trazado 4000" transform="translate(-317.18 -375.593)"/>
                                    <path id="Trazado_4001" d="M319.27 380.264a4.565 4.565 0 0 1 3.148 2.418c.528 1.2 1.4 2.881 2.075 3.257s1.864-.172 2.878-.179 1.736.466 1.793 1.205l-4.23 2c-.976.461-1.8.477-2.565-1.549s-1.056-3.166-1.664-1.79a19.462 19.462 0 0 0-.862 4.477.982.982 0 0 1-1.229-.514 20.438 20.438 0 0 0-.149-2.7c-.175-1.246-1.305-2.813-1.219-4.312s.903-2.377 2.024-2.313z" class="cls-27" data-name="Trazado 4001" transform="translate(-317.243 -374.878)"/>
                                </g>
                            </g>
                            <path id="Trazado_4002" d="M306.095 296.833c-1.835.53-2.888 2.565-4.5 6.912s-3.294 10.689-3.081 12.365c.519 4.1 3.065 7.6 7.454 10.5l1.958-3.589s-4.3-3.464-4.715-7.563c-.231-2.3 2.757-10.138 2.757-10.348s.127-8.277.127-8.277z" class="cls-25" data-name="Trazado 4002" transform="translate(-298.495 -277.282)"/>
                            <path id="Trazado_4003" d="M304.266 364.864a21.3 21.3 0 0 1 .861-6.292s-1.573-7.732-2.151-13.693c-.853-8.792-2.409-10.9-1.006-16.1 1.292-4.8 3.335-8.142 4.7-11.511l14.351 1.131s1.247 4.069 2.859 12.17 2.344 17.665 2.189 30.429c-.04 3.289-.067 6.225-.259 14.423-.129 5.51-.191 12.931-.191 12.931a3.744 3.744 0 0 1-4.084-.173s-3.4-16.347-3.941-20.1a11.856 11.856 0 0 1 .5-6.194s-1.077-5.13-1.876-9.164c-.976-4.918-3.386-15.548-3.386-15.548s-.071 16.263-.3 19.545-.1 5.9-.7 10.279c-.735 5.295-1.393 14.2-1.393 14.2a4.931 4.931 0 0 1-3.924-.693s-2.249-11.011-2.249-15.64z" class="cls-34" data-name="Trazado 4003" transform="translate(-298.049 -274.152)"/>
                            <path id="Trazado_4004" d="M312.4 334.87s-.071 16.262-.3 19.545c-.029.411-.055.776-.083 1.114v.027c0 .061-.01.118-.015.176l-1.672-19.02c-4.622-1.33-6.089-4.43-6.089-4.43 3.112 3.132 8.159 2.588 8.159 2.588z" class="cls-35" data-name="Trazado 4004" transform="translate(-297.616 -271.851)"/>
                            <path id="Trazado_4005" d="M305.952 299.348c3.056-.185 3.35.322 3.595-.761.088-.389.257-3.079.257-3.079a9.442 9.442 0 0 1-.763-1.129 7.82 7.82 0 0 1 3.289-14.457c4.054-.423 7.036 2.425 7.833 6.336a17.352 17.352 0 0 1-.328 9.037c-.679 1.79-1.307 3.042-2.927 2.978a10.035 10.035 0 0 1-1.6-.283 14.818 14.818 0 0 0-.088 2.243c.042.782-.09 1.175 1.44 2.117s-2.314 2.881-4.826 2.689-5.337-1.7-6.112-3.329c-.86-1.81-1.208-2.276.23-2.362z" class="cls-25" data-name="Trazado 4005" transform="translate(-297.502 -279.88)"/>
                            <path id="Trazado_4006" d="M305.726 300.17c-.864-1.813-1.212-2.275.226-2.362 3.056-.185 3.35.322 3.595-.761.088-.389.257-3.079.257-3.079a9.447 9.447 0 0 1-.763-1.129 7.9 7.9 0 0 1-2.678-2.739l.183-.171 6.528 3.367 1.21-.266.969-1.09a15.924 15.924 0 0 0 .45 2.745c.294.853 2.261 1.835 2.279 1.843a2.239 2.239 0 0 1-1.074.2 10.029 10.029 0 0 1-1.6-.282 14.817 14.817 0 0 0-.088 2.243c.042.782-.09 1.175 1.44 2.117s-2.314 2.881-4.826 2.689-5.334-1.701-6.108-3.325z" class="cls-30" data-name="Trazado 4006" transform="translate(-297.502 -278.34)"/>
                            <path id="Trazado_4007" d="M308.144 294.644a8.525 8.525 0 0 1-2.85-6.1 7.849 7.849 0 0 1 6.992-8.62 6.761 6.761 0 0 1 6.488 3.063 4.294 4.294 0 0 1-.733 1.019 1.85 1.85 0 0 1-.279 1.711 2.338 2.338 0 0 0-.487 1.907 10.471 10.471 0 0 1 .118 2.451 2.225 2.225 0 0 1-1.18 1.653 10.514 10.514 0 0 0-.587-2.677 1.479 1.479 0 0 0-2.671.129 3.423 3.423 0 0 0 .263 3.424 1.673 1.673 0 0 0 1.992.878 2.143 2.143 0 0 1-1.719 2.4 5.883 5.883 0 0 1-4.164-.416 7.645 7.645 0 0 1-1.183-.822z" class="cls-36" data-name="Trazado 4007" transform="translate(-297.46 -279.88)"/>
                            <path id="Trazado_4008" d="M315.305 280.879a3.521 3.521 0 0 1 4.055 3.547 5.14 5.14 0 0 1-3.928 4.985z" class="cls-36" data-name="Trazado 4008" transform="translate(-295.92 -279.732)"/>
                            <path id="Trazado_4009" d="M309.283 296.712c-.563.7-.627 1.589 1.556 2.139a6.876 6.876 0 0 0 4.771-.368 32.1 32.1 0 0 1 4.939 2.617c4.877 3.386 6.053 9.268 1.135 11.295-.3 2.21-.665 7.9-.759 9.192-4.16 2.906-12.609 1.915-14.5-1.166a24.963 24.963 0 0 0-.288-3.076c-1.986-7.359-3.536-9.312-2.982-14.863.317-3.176.56-4.773 2.249-5.622a14.654 14.654 0 0 1 3.879-.148z" class="cls-32" data-name="Trazado 4009" transform="translate(-297.799 -277.31)"/>
                            <path id="Trazado_4010" d="M315.956 299.121s-.509-1.375-.623-1.7a.638.638 0 0 0-.5-.376s-.566.7-2.4.512-3.288-1.019-3.227-1.669l.04-.417a1.059 1.059 0 0 0-.89.3c-.374.393-.906 1.112-.906 1.112s-.3 1.508 2.155 2.423a8.3 8.3 0 0 0 6.351-.185z" class="cls-26" data-name="Trazado 4010" transform="translate(-297.124 -277.493)"/>
                            <path id="Trazado_4011" d="M337.917 334.461a25.047 25.047 0 0 0-3.228-.746 10.478 10.478 0 0 1-3.166-.574c-1.1-.392-2.39-1.779-4.4-4.559a33.5 33.5 0 0 1-4.675-10.363 78.938 78.938 0 0 1-1.5-13.749c0-2.793-1.264-3.9-2.73-4.448-1.719-.64-2.918-.044-2.787 3.8a71.986 71.986 0 0 0 2.288 15.938 34.022 34.022 0 0 0 5.085 10.412 29.17 29.17 0 0 0 5.652 6.262c.744.655 1.134 1.325 2.4 2.74a11.792 11.792 0 0 0 4.6 3.228c1.515.484 2.139.419 2.371.156.291-.331.091-.7-.576-1a9.7 9.7 0 0 1-2.99-1.746s1.428.73 2.319 1.091a9.558 9.558 0 0 0 2.478.641c.822.083 1.621-.849.958-1.168s-1.267-.386-2.581-.94a9.518 9.518 0 0 1-1.97-1.109 17.981 17.981 0 0 0 2.758.735 4.014 4.014 0 0 0 2.257-.113c.376-.141.664-.816-.213-1.1a14.508 14.508 0 0 1-3.322-.971c-1.038-.526-1.7-1.041-1.481-1.128s.8.265 1.819.257c.969-.006 1.916-.59 1.869-1.135s-.238-.262-1.235-.411z" class="cls-25" data-name="Trazado 4011" transform="translate(-295.903 -276.827)"/>
                        </g>
                    </g>
                </g>
                <path id="Trazado_4347" d="M14.8 31.837h10.25c0-7.2 11.4-8.417 11.4-19.279C36.453 4.548 29.393 0 19.211 0 10.047 0 3.666 3.53 0 9.1l8.214 4.82a11.5 11.5 0 0 1 9.843-5.023c4.412 0 7.331 2.1 7.331 5.431 0 5.901-10.588 8.005-10.588 17.509zm5.159 17.039a6.24 6.24 0 0 0 6.515-6.176c0-3.462-2.715-6.042-6.517-6.042s-6.517 2.58-6.517 6.042a6.24 6.24 0 0 0 6.517 6.175z" class="cls-12" data-name="Trazado 4347" transform="rotate(14.98 -593.796 1210.174)"/>
                <path id="Trazado_4349" d="M16.5 12.287c3.869 0 6.517-2.647 6.517-6.109A6.2 6.2 0 0 0 16.5 0a6.181 6.181 0 0 0-6.449 6.177 6.088 6.088 0 0 0 6.449 6.11zm.747 35.978c9.232 0 15.545-3.53 19.211-9.1l-8.214-4.82a11.257 11.257 0 0 1-9.844 5.027c-4.412 0-7.263-2.1-7.263-5.023 0-5.906 10.522-8.01 10.522-17.31H11.4C11.4 24.03.068 25.32 0 35.91c0 7.874 7.06 12.355 17.242 12.355z" class="cls-37" data-name="Trazado 4349" transform="rotate(14.98 -460.83 1041.653)"/>
            </g>
            <g id="Grupo_2986" data-name="Grupo 2986" transform="translate(0 165.874)">
                <path id="Trazado_4359" d="M6.517 0A6.24 6.24 0 0 0 0 6.177c0 3.462 2.715 6.109 6.517 6.109s6.517-2.647 6.517-6.109A6.24 6.24 0 0 0 6.517 0zm4.209 17.039H2.308L.2 47.518h12.63z" class="cls-1" data-name="Trazado 4359" transform="rotate(-11 195.225 18.798)"/>
                <path id="Trazado_4360" d="M2.308 31.022h8.417L12.83 0H.2zm4.209 17.039a6.24 6.24 0 0 0 6.517-6.177c0-3.462-2.715-6.042-6.517-6.042S0 38.422 0 41.884a6.24 6.24 0 0 0 6.517 6.177z" class="cls-1" data-name="Trazado 4360" transform="rotate(-11 27.266 -147.808)"/>
            </g>
            <path id="Trazado_4348" d="M2.308 31.022h8.417L12.83 0H.2zm4.209 17.039a6.24 6.24 0 0 0 6.517-6.177c0-3.462-2.715-6.042-6.517-6.042S0 38.422 0 41.884a6.24 6.24 0 0 0 6.517 6.177z" class="cls-12" data-name="Trazado 4348" transform="rotate(-11 863.437 -80.637)"/>
        </g>
        <path id="Trazado_4361" d="M6.517 0A6.24 6.24 0 0 0 0 6.177c0 3.462 2.715 6.109 6.517 6.109s6.517-2.647 6.517-6.109A6.24 6.24 0 0 0 6.517 0zm4.209 17.039H2.308L.2 47.518h12.63z" class="cls-37" data-name="Trazado 4361" transform="rotate(-11 2449.49 -3204.995)"/>
    </g>
</svg>
